<svg xmlns="http://www.w3.org/2000/svg" viewBox="0 0 192 192">
  <rect width="192" height="192" rx="44" fill="#0f5c53"/>
  <path d="M49 55c0-8 6-14 14-14h66c8 0 14 6 14 14v82H63c-8 0-14-6-14-14V55Z" fill="#f4c95d"/>
  <path d="M63 41h53c8 0 14 6 14 14v68H63c-8 0-14 6-14 14V55c0-8 6-14 14-14Z" fill="#fffdf6"/>
  <path d="M76 71h41M76 91h41M76 111h27" stroke="#0f5c53" stroke-width="9" stroke-linecap="round"/>
  <path d="M49 137h83" stroke="#0f5c53" stroke-width="10" stroke-linecap="round"/>
</svg>